inDegrees=no
num_controls=7
num_derivatives=13
num_iterations=118
num_multipliers=7
num_parameters=0
num_slacks=7
num_states=26
objective=0.444887
objective_accelerations=0.057940
objective_balance=0.003616
objective_effort=0.023304
objective_height=0.354529
objective_ligament=0.005498
solver_duration=1704.517310
status=Solve_Succeeded
success=true
DataType=double
version=3
OpenSimVersion=4.5
endheader
time	/jointset/ground_pelvis/pelvis_tilt/value	/jointset/ground_pelvis/pelvis_tx/value	/jointset/ground_pelvis/pelvis_ty/value	/jointset/hip_l/hip_flexion_l/value	/jointset/hip_l/hip_adduction_l/value	/jointset/hip_l/hip_rotation_l/value	/jointset/back/lumbar_extension/value	/jointset/patellofemoral_l/patellar_flexion_l/value	/jointset/knee_l/knee_flexion_l/value	/jointset/knee_l/knee_adduction_l/value	/jointset/knee_l/knee_rotation_l/value	/jointset/ankle_l/ankle_angle_l/value	/jointset/subtalar_l/subtalar_angle_l/value	/jointset/ground_pelvis/pelvis_tilt/speed	/jointset/ground_pelvis/pelvis_tx/speed	/jointset/ground_pelvis/pelvis_ty/speed	/jointset/hip_l/hip_flexion_l/speed	/jointset/hip_l/hip_adduction_l/speed	/jointset/hip_l/hip_rotation_l/speed	/jointset/back/lumbar_extension/speed	/jointset/patellofemoral_l/patellar_flexion_l/speed	/jointset/knee_l/knee_flexion_l/speed	/jointset/knee_l/knee_adduction_l/speed	/jointset/knee_l/knee_rotation_l/speed	/jointset/ankle_l/ankle_angle_l/speed	/jointset/subtalar_l/subtalar_angle_l/speed	/forceset/tau_hip_flexion_l	/forceset/tau_hip_adduction_l	/forceset/tau_hip_rotation_l	/forceset/tau_knee_flexion_l	/forceset/tau_ankle_angle_l	/forceset/tau_subtalar_angle_l	/forceset/tau_lumbar_extension	lambda_cid13_p0	lambda_cid13_p1	lambda_cid13_p2	lambda_cid13_p3	lambda_cid13_p4	lambda_cid13_p5	lambda_cid14_p0	/jointset/ground_pelvis/pelvis_tilt/accel	/jointset/ground_pelvis/pelvis_tx/accel	/jointset/ground_pelvis/pelvis_ty/accel	/jointset/hip_l/hip_flexion_l/accel	/jointset/hip_l/hip_adduction_l/accel	/jointset/hip_l/hip_rotation_l/accel	/jointset/back/lumbar_extension/accel	/jointset/patellofemoral_l/patellar_flexion_l/accel	/jointset/knee_l/knee_flexion_l/accel	/jointset/knee_l/knee_adduction_l/accel	/jointset/knee_l/knee_rotation_l/accel	/jointset/ankle_l/ankle_angle_l/accel	/jointset/subtalar_l/subtalar_angle_l/accel	gamma_cid13_p0	gamma_cid13_p1	gamma_cid13_p2	gamma_cid13_p3	gamma_cid13_p4	gamma_cid13_p5	gamma_cid14_p0
1.5	-0.3737488361732123	-0.02641173258661868	0.7601420636682807	1.117242444999329	-0.4351379431666857	-0.2116097338532025	-0.2265011109471231	0.8057903820810163	0.8057903820809925	-0.1313185068438273	-0.1464337611247207	0.1241268985066594	-0.02176320271875841	0.6910300460727988	0.279917447383869	0.5393349421209758	-2.48702862758243	0.2083266860389984	-0.7201985410530966	0.3113331645358643	-2.016249414320292	-2.016249414319939	-0.1307352705509645	0.1340200127909106	-0.386231825543745	0.04239044397770891	-0.1781505334124766	0.02921388464262585	-0.008221381199802444	-0.202104863338175	0.04398385471751912	0.04329419505429206	0.1709330472327985	-18.06291936561742	-18.5705892419202	5.972200225242932	-7.744271641996556	-520.3123318415193	-60.75108754081958	-24.92529154226158	0.6921891730399339	0.7207007604665426	-0.5182956692460481	-1.322894595968052	0.7188894677817929	-0.1835214201530743	1.499364971185593	-1.325389459119164	-1.325389459119146	0.1286962156563236	0.2366757151667597	-0.4972994336148042	0.5236545477095856	4.864955824946871e-07	5.112921658863587e-07	-2.752954880003463e-06	-9.370015057032596e-08	6.923019171630602e-07	-7.87291666634477e-08	4.517046650158063e-07
1.51	-0.3668040111971048	-0.02357679461549602	0.7655084182041021	1.092307813135824	-0.4330202011499152	-0.218819644146219	-0.2233139867856199	0.785564022610565	0.7855640226106356	-0.1326223492915709	-0.14508302985247	0.1202399578775761	-0.02131482379128755	0.6978360558111878	0.2870338781637725	0.5338212341410515	-2.499553999394016	0.2151987248897089	-0.7216621862610315	0.3260664011403717	-2.028740563102356	-2.028740563102176	-0.1300439936258392	0.1361273506747502	-0.3910860619421718	0.04728815411958796	-0.1722175349654907	0.02864606732313927	-0.007866070185315707	-0.1990018259145458	0.04359967677969158	0.04249835532096104	0.1661212561429175	-17.96876882799922	-18.24703414050796	5.927004710373853	-7.511605408121542	-516.3008877343855	-60.84410130726263	-25.84007998910414	0.6599938930637723	0.7017036192439289	-0.5850081835758515	-1.165767334836839	0.6679471830039606	-0.1092446457939838	1.456513011407813	-1.168766229751261	-1.168766229777176	0.03787760606280873	0.1976018826902137	-0.4689152927766828	0.4732344285394783	4.170143399572609e-07	9.589643361331555e-07	-1.917117189776984e-06	6.609912463566611e-08	5.977692454077465e-07	4.017034865263003e-08	4.048485712275852e-07
1.52	-0.3597940887198489	-0.02067177446007602	0.770816215695882	1.067258245781986	-0.4308344215267798	-0.2260404826062501	-0.219980288256807	0.765221193923894	0.7652211939240557	-0.1339195721350424	-0.1437112573898376	0.1163065889745447	-0.0208173867261754	0.7040495463025934	0.2939338842433388	0.5276235333127187	-2.51001572564892	0.2219342073119497	-0.7223841744561768	0.3406480379978606	-2.039543257564469	-2.039543257564461	-0.1294113496958264	0.1382282508664958	-0.3955174803334015	0.05220207150596384	-0.1662845365185034	0.02807825000365602	-0.007510759170857671	-0.1958987884909137	0.04321549884186547	0.04170251558763504	0.161309465053036	-17.87820709936986	-17.92595710982064	5.885753681481509	-7.308101132603506	-512.3601316769425	-60.98426277432306	-26.75440045573611	0.5736853236432475	0.6774158203990978	-0.6550942389277646	-0.9101654846316901	0.6915781820878475	-0.03519001759512646	1.46904502178188	-0.9876985951287336	-0.987698595128733	0.1169696166338266	0.2353881767479514	-0.4127358321753941	0.5268959966089534	3.937734007737471e-07	1.22681032361055e-06	-1.534240119813698e-06	1.485038026074878e-07	5.760235018754882e-07	1.302561394864525e-07	3.896622183568659e-07
1.53	-0.3527250080153109	-0.01769894207311632	0.7760587021661476	1.042114278851757	-0.4285821104945778	-0.2332651992572793	-0.2165019147403285	0.7447786902535904	0.744778690253688	-0.1352108160940233	-0.1423187542693349	0.1123309160354599	-0.02027093400958553	0.7096543653879063	0.3005846780488542	0.520764885439461	-2.518411978159227	0.2285035299463138	-0.7224703358246501	0.3549757710549257	-2.04866533002088	-2.048665330021165	-0.128818905136725	0.1402529085051947	-0.3995470301621236	0.05709069436407332	-0.1601505943638118	0.02694288203843864	-0.007167338468728914	-0.1930486270262445	0.04285049719240561	0.04101918163790518	0.1562875217691319	-17.78796897547647	-17.65727740922638	5.856958872811632	-7.015335842417126	-508.4929130810301	-61.31939044637727	-27.66823603752432	0.537066902679694	0.6517536495585554	-0.7174490817850193	-0.749471629232086	0.6359756032755468	0.01837612725587099	1.40700331121466	-0.8307232014210639	-0.8307232014649649	0.03332185199212476	0.1827159170235809	-0.3875137438649771	0.4701604601351754	4.196627839037647e-07	1.303590991895457e-06	-1.632633708880048e-06	1.486767210180045e-07	6.316138695802254e-07	1.89727348057879e-07	4.081249652109917e-07
1.54	-0.3456032417795797	-0.01466103325031533	0.7812293623536285	1.016897326097425	-0.426264832976199	-0.2404880364572469	-0.2128817907205703	0.7242537135326185	0.7242537135326487	-0.1364955476121252	-0.1409066623005257	0.1083170577609591	-0.01967553205846989	0.7145866525413966	0.3069491714115972	0.5132582767557954	-2.524612890469609	0.2349275045472717	-0.7220082842439506	0.3689981386538256	-2.05603786769824	-2.056037867698818	-0.1281088615198703	0.1421460205276028	-0.4031545474166201	0.06199191841111229	-0.1540166522091211	0.02580751407322261	-0.006823917766607402	-0.1901984655615744	0.0424854955429466	0.04033584768817761	0.1512655784852258	-17.69948898186846	-17.3915840052342	5.832403963370409	-6.760485706999336	-504.6704084860302	-61.70312820388443	-28.58226366209957	0.4391789372787751	0.6201557318446006	-0.7846864010093139	-0.4710974446464967	0.6625085754066061	0.07445257223945347	1.407971930148847	-0.6377916393184901	-0.6377916393184613	0.1404894281844885	0.2090790534897791	-0.3283293173302738	0.5294162343948576	4.290776776014924e-07	1.414554614601944e-06	-1.623741170664275e-06	1.665801622193368e-07	6.622057735245732e-07	2.467978192885894e-07	4.170610033597795e-07
